<mxfile host="app.diagrams.net" agent="Mozilla/5.0 (Windows NT 10.0; Win64; x64) AppleWebKit/537.36 (KHTML, like Gecko) Chrome/138.0.0.0 Safari/537.36 Edg/138.0.0.0" version="28.0.7">
  <diagram name="Page-1" id="NItLZgs63hJzGXLrymNo">
    <mxGraphModel dx="1034" dy="1670" grid="1" gridSize="10" guides="1" tooltips="1" connect="1" arrows="1" fold="1" page="1" pageScale="1" pageWidth="850" pageHeight="1100" math="0" shadow="0">
      <root>
        <mxCell id="0" />
        <mxCell id="1" parent="0" />
        <mxCell id="Jyz67q0QLgxd86OFIjem-1" value="&lt;font style=&quot;font-size: 18px;&quot;&gt;&lt;b style=&quot;&quot;&gt;Plan&lt;/b&gt;&lt;/font&gt;" style="ellipse;whiteSpace=wrap;html=1;aspect=fixed;fillColor=#e6d0de;gradientColor=#d5739d;strokeColor=#996185;" vertex="1" parent="1">
          <mxGeometry x="370" y="30" width="80" height="80" as="geometry" />
        </mxCell>
        <mxCell id="Jyz67q0QLgxd86OFIjem-14" value="" style="edgeStyle=orthogonalEdgeStyle;rounded=0;orthogonalLoop=1;jettySize=auto;html=1;" edge="1" parent="1" source="Jyz67q0QLgxd86OFIjem-2" target="Jyz67q0QLgxd86OFIjem-3">
          <mxGeometry relative="1" as="geometry" />
        </mxCell>
        <mxCell id="Jyz67q0QLgxd86OFIjem-2" value="&lt;b&gt;&lt;font style=&quot;font-size: 18px;&quot;&gt;Build&lt;/font&gt;&lt;/b&gt;" style="ellipse;whiteSpace=wrap;html=1;aspect=fixed;fillColor=#dae8fc;gradientColor=#7ea6e0;strokeColor=#6c8ebf;" vertex="1" parent="1">
          <mxGeometry x="540" y="120" width="80" height="80" as="geometry" />
        </mxCell>
        <mxCell id="Jyz67q0QLgxd86OFIjem-3" value="&lt;font style=&quot;font-size: 18px;&quot;&gt;&lt;b&gt;Test&lt;/b&gt;&lt;/font&gt;" style="ellipse;whiteSpace=wrap;html=1;aspect=fixed;fillColor=#d5e8d4;gradientColor=#97d077;strokeColor=#82b366;" vertex="1" parent="1">
          <mxGeometry x="540" y="290" width="80" height="80" as="geometry" />
        </mxCell>
        <mxCell id="Jyz67q0QLgxd86OFIjem-17" value="" style="edgeStyle=orthogonalEdgeStyle;rounded=0;orthogonalLoop=1;jettySize=auto;html=1;" edge="1" parent="1" source="Jyz67q0QLgxd86OFIjem-5" target="Jyz67q0QLgxd86OFIjem-8">
          <mxGeometry relative="1" as="geometry" />
        </mxCell>
        <mxCell id="Jyz67q0QLgxd86OFIjem-5" value="&lt;b&gt;&lt;font style=&quot;font-size: 18px;&quot;&gt;Operate&lt;/font&gt;&lt;/b&gt;" style="ellipse;whiteSpace=wrap;html=1;aspect=fixed;fillColor=#f8cecc;gradientColor=#ea6b66;strokeColor=#b85450;" vertex="1" parent="1">
          <mxGeometry x="200" y="300" width="80" height="80" as="geometry" />
        </mxCell>
        <mxCell id="Jyz67q0QLgxd86OFIjem-6" value="&lt;font style=&quot;font-size: 18px;&quot;&gt;&lt;b&gt;Deploy&lt;/b&gt;&lt;/font&gt;" style="ellipse;whiteSpace=wrap;html=1;aspect=fixed;fillColor=#fff2cc;gradientColor=#ffd966;strokeColor=#d6b656;" vertex="1" parent="1">
          <mxGeometry x="370" y="370" width="80" height="80" as="geometry" />
        </mxCell>
        <mxCell id="Jyz67q0QLgxd86OFIjem-8" value="&lt;font style=&quot;font-size: 18px;&quot;&gt;&lt;b&gt;Monitor&lt;/b&gt;&lt;/font&gt;" style="ellipse;whiteSpace=wrap;html=1;aspect=fixed;fillColor=#ffcd28;gradientColor=#ffa500;strokeColor=#d79b00;" vertex="1" parent="1">
          <mxGeometry x="200" y="120" width="80" height="80" as="geometry" />
        </mxCell>
        <mxCell id="Jyz67q0QLgxd86OFIjem-10" value="&lt;b&gt;&lt;font style=&quot;font-size: 18px;&quot;&gt;Food Delivery App&lt;/font&gt;&lt;/b&gt;" style="text;html=1;align=center;verticalAlign=middle;resizable=0;points=[];autosize=1;strokeColor=none;fillColor=#837891;" vertex="1" parent="1">
          <mxGeometry x="335" y="210" width="180" height="40" as="geometry" />
        </mxCell>
        <mxCell id="Jyz67q0QLgxd86OFIjem-12" value="&lt;b&gt;&lt;font style=&quot;font-size: 24px;&quot;&gt;DevOps Lifecycle&lt;/font&gt;&lt;/b&gt;" style="text;html=1;align=center;verticalAlign=middle;resizable=0;points=[];autosize=1;strokeColor=none;fillColor=#FF9999;" vertex="1" parent="1">
          <mxGeometry x="300" y="-30" width="220" height="40" as="geometry" />
        </mxCell>
        <mxCell id="Jyz67q0QLgxd86OFIjem-13" value="" style="endArrow=classic;html=1;rounded=0;exitX=1;exitY=0.5;exitDx=0;exitDy=0;" edge="1" parent="1" source="Jyz67q0QLgxd86OFIjem-1" target="Jyz67q0QLgxd86OFIjem-2">
          <mxGeometry width="50" height="50" relative="1" as="geometry">
            <mxPoint x="460" y="80" as="sourcePoint" />
            <mxPoint x="480" y="130" as="targetPoint" />
          </mxGeometry>
        </mxCell>
        <mxCell id="Jyz67q0QLgxd86OFIjem-15" value="" style="endArrow=classic;html=1;rounded=0;entryX=0.99;entryY=0.42;entryDx=0;entryDy=0;entryPerimeter=0;exitX=0;exitY=1;exitDx=0;exitDy=0;" edge="1" parent="1" source="Jyz67q0QLgxd86OFIjem-3" target="Jyz67q0QLgxd86OFIjem-6">
          <mxGeometry width="50" height="50" relative="1" as="geometry">
            <mxPoint x="530" y="370" as="sourcePoint" />
            <mxPoint x="617" y="428" as="targetPoint" />
          </mxGeometry>
        </mxCell>
        <mxCell id="Jyz67q0QLgxd86OFIjem-16" value="" style="endArrow=classic;html=1;rounded=0;entryX=1;entryY=1;entryDx=0;entryDy=0;exitX=0;exitY=0.5;exitDx=0;exitDy=0;" edge="1" parent="1" source="Jyz67q0QLgxd86OFIjem-6" target="Jyz67q0QLgxd86OFIjem-5">
          <mxGeometry width="50" height="50" relative="1" as="geometry">
            <mxPoint x="320" y="380" as="sourcePoint" />
            <mxPoint x="407" y="438" as="targetPoint" />
          </mxGeometry>
        </mxCell>
        <mxCell id="Jyz67q0QLgxd86OFIjem-18" value="" style="endArrow=classic;html=1;rounded=0;exitX=1;exitY=0;exitDx=0;exitDy=0;entryX=0;entryY=0.5;entryDx=0;entryDy=0;" edge="1" parent="1" source="Jyz67q0QLgxd86OFIjem-8" target="Jyz67q0QLgxd86OFIjem-1">
          <mxGeometry width="50" height="50" relative="1" as="geometry">
            <mxPoint x="280" y="130" as="sourcePoint" />
            <mxPoint x="367" y="88" as="targetPoint" />
          </mxGeometry>
        </mxCell>
      </root>
    </mxGraphModel>
  </diagram>
</mxfile>
